<?xml version="1.0" encoding="UTF-8"?>
<svg id="Camada_2" data-name="Camada 2" xmlns="http://www.w3.org/2000/svg" viewBox="0 0 286.84 50">
  <defs>
    <style>
      .cls-1 {
        fill: #357ded;
      }

      .cls-1, .cls-2 {
        stroke-width: 0px;
      }

      .cls-2 {
        fill: #122932;
      }
    </style>
  </defs>
  <g id="Camada_1-2" data-name="Camada 1">
    <g>
      <path class="cls-2" d="m40.08,39.95V11.76h5.54v2.88c2.18-2.29,5-3.43,8.47-3.43,2.18,0,4.09.46,5.73,1.38,1.64.92,2.94,2.22,3.88,3.88.94,1.66,1.41,3.58,1.41,5.76v17.72h-5.54v-16.78c0-2.22-.62-3.96-1.86-5.23s-2.96-1.91-5.18-1.91c-1.48,0-2.81.32-3.99.94-1.18.63-2.16,1.53-2.93,2.71v20.27h-5.54Z"/>
      <path class="cls-2" d="m74.25,7.22c-.92,0-1.72-.34-2.38-1.03s-1-1.49-1-2.41.33-1.76,1-2.41,1.46-.97,2.38-.97,1.77.32,2.44.97,1,1.45,1,2.41-.33,1.73-1,2.41-1.48,1.03-2.44,1.03Zm-2.77,32.73V11.76h5.54v28.19h-5.54Z"/>
      <path class="cls-2" d="m96.79,40.45c-2.7,0-5.15-.64-7.37-1.94-2.22-1.29-3.96-3.05-5.23-5.26-1.28-2.22-1.91-4.69-1.91-7.42s.64-5.2,1.94-7.39c1.29-2.2,3.04-3.95,5.23-5.26,2.2-1.31,4.64-1.97,7.34-1.97,2.14,0,4.2.41,6.18,1.22,1.97.81,3.68,1.96,5.12,3.43l-3.43,3.82c-1.07-1.18-2.27-2.07-3.6-2.66s-2.71-.89-4.15-.89c-1.7,0-3.24.43-4.62,1.28-1.39.85-2.48,2.01-3.3,3.49-.81,1.48-1.22,3.12-1.22,4.93s.41,3.45,1.22,4.93c.81,1.48,1.92,2.65,3.32,3.52,1.4.87,2.97,1.3,4.71,1.3,1.44,0,2.79-.28,4.04-.86s2.44-1.41,3.55-2.52l3.38,3.55c-1.48,1.51-3.18,2.68-5.12,3.49-1.94.81-3.96,1.22-6.06,1.22Z"/>
      <path class="cls-2" d="m124.99,40.5c-2.73,0-5.22-.65-7.45-1.94-2.24-1.29-4-3.05-5.29-5.26-1.29-2.22-1.94-4.69-1.94-7.42s.64-5.21,1.94-7.42c1.29-2.22,3.05-3.98,5.29-5.29,2.23-1.31,4.72-1.97,7.45-1.97s5.26.66,7.48,1.97c2.22,1.31,3.97,3.07,5.26,5.29,1.29,2.22,1.94,4.69,1.94,7.42s-.65,5.21-1.94,7.42c-1.29,2.22-3.05,3.97-5.26,5.26-2.22,1.29-4.71,1.94-7.48,1.94Zm0-4.87c1.74,0,3.3-.43,4.71-1.3s2.51-2.04,3.32-3.52c.81-1.48,1.22-3.14,1.22-4.99s-.42-3.44-1.25-4.9c-.83-1.46-1.94-2.63-3.32-3.52-1.38-.89-2.95-1.33-4.68-1.33s-3.3.44-4.68,1.33c-1.39.89-2.49,2.06-3.32,3.52-.83,1.46-1.25,3.09-1.25,4.9s.41,3.51,1.22,4.99c.81,1.48,1.92,2.65,3.32,3.52,1.4.87,2.97,1.3,4.71,1.3Z"/>
      <path class="cls-1" d="m147.14,40.34c-.96,0-1.78-.34-2.47-1.03s-1.02-1.5-1.02-2.46.34-1.78,1.02-2.47,1.51-1.03,2.47-1.03,1.78.34,2.47,1.03c.68.68,1.02,1.51,1.02,2.47s-.34,1.78-1.02,2.46c-.69.68-1.51,1.03-2.47,1.03Z"/>
      <path class="cls-2" d="m168.86,40.39c-2.62,0-5.02-.65-7.2-1.94-2.18-1.29-3.9-3.04-5.15-5.23s-1.88-4.66-1.88-7.39.64-5.19,1.91-7.37c1.27-2.18,3-3.91,5.18-5.21,2.18-1.29,4.6-1.94,7.26-1.94,1.55,0,3.05.24,4.49.72s2.77,1.18,3.99,2.11V1.18l5.54-1.05v39.82h-5.48v-2.71c-2.4,2.11-5.28,3.16-8.64,3.16Zm.72-4.82c1.62,0,3.11-.29,4.46-.89,1.35-.59,2.48-1.44,3.41-2.55v-12.68c-.92-1.03-2.06-1.85-3.41-2.47-1.35-.61-2.84-.91-4.46-.91-1.77,0-3.38.42-4.82,1.27s-2.59,2-3.43,3.46-1.27,3.11-1.27,4.96.42,3.51,1.27,4.98c.85,1.48,1.99,2.65,3.43,3.52s3.05,1.3,4.82,1.3Z"/>
      <path class="cls-2" d="m203.03,40.45c-2.77,0-5.27-.64-7.51-1.94-2.23-1.29-4-3.05-5.32-5.26s-1.97-4.69-1.97-7.42.63-5.14,1.88-7.34,2.95-3.95,5.1-5.26c2.14-1.31,4.52-1.97,7.15-1.97s4.95.66,6.98,1.97c2.03,1.31,3.65,3.08,4.85,5.32,1.2,2.24,1.8,4.76,1.8,7.56v1.55h-22.21c.3,1.55.88,2.94,1.74,4.15.87,1.22,1.98,2.18,3.32,2.88,1.35.7,2.81,1.05,4.4,1.05,1.37,0,2.69-.21,3.96-.64,1.27-.43,2.33-1.04,3.18-1.86l3.55,3.49c-1.66,1.26-3.37,2.19-5.12,2.8-1.76.61-3.68.91-5.79.91Zm-9.2-16.95h16.67c-.22-1.48-.73-2.78-1.52-3.91-.79-1.12-1.77-2.01-2.93-2.66s-2.43-.97-3.8-.97-2.7.31-3.88.94c-1.18.63-2.17,1.51-2.96,2.63s-1.32,2.45-1.58,3.96Z"/>
      <path class="cls-2" d="m229.5,39.95l-12.18-28.19h6.09l8.81,21.1,8.81-21.1h5.87l-12.07,28.19h-5.32Z"/>
    </g>
    <path class="cls-1" d="m31.49,50L0,24.95,31.59,0l3.69,4.78L9.27,24.85l26.01,20.26-3.79,4.89Z"/>
    <path class="cls-1" d="m255.34,0l31.49,25.05-31.59,24.95-3.69-4.79,26.01-20.06-26.01-20.26,3.79-4.89Z"/>
  </g>
</svg>