<?xml version="1.0" encoding="utf-8"?>
<!-- Generator: Adobe Illustrator 27.9.0, SVG Export Plug-In . SVG Version: 6.00 Build 0)  -->
<svg version="1.1" id="Camada_2_00000026858331211926352830000014988023342237710763_"
	 xmlns="http://www.w3.org/2000/svg" xmlns:xlink="http://www.w3.org/1999/xlink" x="0px" y="0px" viewBox="0 0 286.8 50"
	 style="enable-background:new 0 0 286.8 50;" xml:space="preserve">
<style type="text/css">
	.st0{fill:#F0F0F0;}
	.st1{fill:#9A9A9C;}
</style>
<g id="Camada_1-2">
	<g>
		<path class="st0" d="M40.1,40V11.8h5.5v2.9c2.2-2.3,5-3.4,8.5-3.4c2.2,0,4.1,0.5,5.7,1.4s2.9,2.2,3.9,3.9s1.4,3.6,1.4,5.8V40h-5.5
			V23.2c0-2.2-0.6-4-1.9-5.2s-3-1.9-5.2-1.9c-1.5,0-2.8,0.3-4,0.9c-1.2,0.6-2.2,1.5-2.9,2.7V40H40.1L40.1,40z"/>
		<path class="st0" d="M74.2,7.2c-0.9,0-1.7-0.3-2.4-1s-1-1.5-1-2.4s0.3-1.8,1-2.4s1.5-1,2.4-1s1.8,0.3,2.4,1s1,1.5,1,2.4
			s-0.3,1.7-1,2.4S75.2,7.2,74.2,7.2z M71.5,40V11.8H77V40H71.5z"/>
		<path class="st0" d="M96.8,40.5c-2.7,0-5.2-0.6-7.4-1.9c-2.2-1.3-4-3-5.2-5.3c-1.3-2.2-1.9-4.7-1.9-7.4s0.6-5.2,1.9-7.4
			c1.3-2.2,3-3.9,5.2-5.3c2.2-1.3,4.6-2,7.3-2c2.1,0,4.2,0.4,6.2,1.2c2,0.8,3.7,2,5.1,3.4l-3.4,3.8c-1.1-1.2-2.3-2.1-3.6-2.7
			s-2.7-0.9-4.2-0.9c-1.7,0-3.2,0.4-4.6,1.3c-1.4,0.9-2.5,2-3.3,3.5c-0.8,1.5-1.2,3.1-1.2,4.9s0.4,3.5,1.2,4.9s1.9,2.7,3.3,3.5
			s3,1.3,4.7,1.3c1.4,0,2.8-0.3,4-0.9s2.4-1.4,3.6-2.5l3.4,3.5c-1.5,1.5-3.2,2.7-5.1,3.5S98.9,40.5,96.8,40.5L96.8,40.5z"/>
		<path class="st0" d="M125,40.5c-2.7,0-5.2-0.7-7.4-1.9c-2.2-1.3-4-3-5.3-5.3c-1.3-2.2-1.9-4.7-1.9-7.4s0.6-5.2,1.9-7.4
			c1.3-2.2,3.1-4,5.3-5.3c2.2-1.3,4.7-2,7.4-2s5.3,0.7,7.5,2s4,3.1,5.3,5.3s1.9,4.7,1.9,7.4s-0.6,5.2-1.9,7.4
			c-1.3,2.2-3.1,4-5.3,5.3C130.2,39.9,127.8,40.5,125,40.5z M125,35.6c1.7,0,3.3-0.4,4.7-1.3s2.5-2,3.3-3.5c0.8-1.5,1.2-3.1,1.2-5
			s-0.4-3.4-1.2-4.9s-1.9-2.6-3.3-3.5s-2.9-1.3-4.7-1.3s-3.3,0.4-4.7,1.3c-1.4,0.9-2.5,2.1-3.3,3.5c-0.8,1.5-1.2,3.1-1.2,4.9
			s0.4,3.5,1.2,5s1.9,2.7,3.3,3.5S123.2,35.6,125,35.6z"/>
		<path class="st1" d="M147.1,40.3c-1,0-1.8-0.3-2.5-1s-1-1.5-1-2.5s0.3-1.8,1-2.5s1.5-1,2.5-1s1.8,0.3,2.5,1c0.7,0.7,1,1.5,1,2.5
			s-0.3,1.8-1,2.5C148.9,40,148.1,40.3,147.1,40.3z"/>
		<path class="st0" d="M168.9,40.4c-2.6,0-5-0.7-7.2-1.9c-2.2-1.3-3.9-3-5.1-5.2s-1.9-4.7-1.9-7.4s0.6-5.2,1.9-7.4s3-3.9,5.2-5.2
			c2.2-1.3,4.6-1.9,7.3-1.9c1.6,0,3.1,0.2,4.5,0.7s2.8,1.2,4,2.1v-13l5.5-1V40h-5.5v-2.7C175.1,39.4,172.2,40.4,168.9,40.4
			L168.9,40.4z M169.6,35.6c1.6,0,3.1-0.3,4.5-0.9c1.4-0.6,2.5-1.4,3.4-2.5V19.5c-0.9-1-2.1-1.9-3.4-2.5c-1.4-0.6-2.8-0.9-4.5-0.9
			c-1.8,0-3.4,0.4-4.8,1.3s-2.6,2-3.4,3.5s-1.3,3.1-1.3,5s0.4,3.5,1.3,5c0.9,1.5,2,2.7,3.4,3.5S167.8,35.6,169.6,35.6L169.6,35.6z"
			/>
		<path class="st0" d="M203,40.5c-2.8,0-5.3-0.6-7.5-1.9c-2.2-1.3-4-3-5.3-5.3s-2-4.7-2-7.4s0.6-5.1,1.9-7.3s2.9-3.9,5.1-5.3
			c2.1-1.3,4.5-2,7.1-2s4.9,0.7,7,2s3.6,3.1,4.9,5.3c1.2,2.2,1.8,4.8,1.8,7.6v1.5h-22.2c0.3,1.5,0.9,2.9,1.7,4.1
			c0.9,1.2,2,2.2,3.3,2.9c1.4,0.7,2.8,1,4.4,1c1.4,0,2.7-0.2,4-0.6s2.3-1,3.2-1.9l3.6,3.5c-1.7,1.3-3.4,2.2-5.1,2.8
			C207.1,40.1,205.1,40.4,203,40.5L203,40.5z M193.8,23.5h16.7c-0.2-1.5-0.7-2.8-1.5-3.9c-0.8-1.1-1.8-2-2.9-2.7s-2.4-1-3.8-1
			s-2.7,0.3-3.9,0.9c-1.2,0.6-2.2,1.5-3,2.6S194.1,22,193.8,23.5L193.8,23.5z"/>
		<path class="st0" d="M229.5,40l-12.2-28.2h6.1l8.8,21.1l8.8-21.1h5.9L234.8,40H229.5L229.5,40z"/>
	</g>
	<path class="st1" d="M31.5,50L0,25L31.6,0l3.7,4.8l-26,20.1l26,20.3C35.3,45.1,31.5,50,31.5,50z"/>
	<path class="st1" d="M255.3,0l31.5,25l-31.6,25l-3.7-4.8l26-20.1l-26-20.3C251.6,4.9,255.3,0,255.3,0z"/>
</g>
</svg>
